<?xml version="1.0" encoding="UTF-8"?><svg id="Base" xmlns="http://www.w3.org/2000/svg" viewBox="0 0 800 800"><defs><style>.cls-1{stroke-width:4px;}.cls-1,.cls-2{fill:none;stroke:#14171c;stroke-miterlimit:10;}.cls-2{stroke-width:2px;}</style></defs><g id="Hairdryer"><line class="cls-2" x1="334.48" y1="38.13" x2="295.01" y2="103.21"/><line class="cls-2" x1="315.29" y1="37.06" x2="284.04" y2="88.44"/><line class="cls-2" x1="297" y1="37" x2="274.73" y2="74.27"/><line class="cls-2" x1="282" y1="37" x2="265.71" y2="61.87"/><line class="cls-2" x1="264" y1="36" x2="252.19" y2="53.6"/><g><g><path class="cls-1" d="M660.1,140.43c-98.52-90.43-265.6-.6-218.23,123.72,86.27,184.85,360.79,31.6,218.23-123.72Z"/><g><polygon class="cls-1" points="559.09 128.16 556.48 191.8 563.98 194.68 579.71 130.48 559.09 128.16"/><polygon class="cls-1" points="517.47 137.95 495.29 152.15 533.2 204.48 539.14 200.86 517.47 137.95"/><polygon class="cls-1" points="474.63 172.2 460.84 197.98 521.42 225.59 527.79 216.74 474.63 172.2"/><polygon class="cls-1" points="460.32 222.28 463.89 247.14 522.63 245.53 522.7 237.63 460.32 222.28"/><polygon class="cls-1" points="531.2 258.28 537.37 263.72 483.34 292.06 469.02 272.29 531.2 258.28"/><polygon class="cls-1" points="548.05 270.17 507.53 311 528.14 320.78 556.35 273.8 548.05 270.17"/><polygon class="cls-1" points="569.47 272.74 583.09 272.86 586.52 331.07 555.93 328.76 569.47 272.74"/><polygon class="cls-1" points="601.51 264.47 597 270.67 616.89 323.77 638.17 308.32 601.51 264.47"/><polygon class="cls-1" points="611.4 245.21 608.05 252.83 662.33 291.25 676.37 267.66 611.4 245.21"/><polygon class="cls-1" points="613.55 223.9 611.46 231.52 680.51 241.62 677.7 217.2 613.55 223.9"/><polygon class="cls-1" points="599.32 204.26 605.05 212.16 672.75 187.95 654.66 166.71 599.32 204.26"/><polygon class="cls-1" points="608.49 132.8 578.35 195.85 588.31 199.57 633.26 147.07 608.49 132.8"/></g><g><path class="cls-1" d="M378.38,166.33c-4.88,69.76-.39,106.29,45.32,165.3,23.11,26.31,54,38.05,55.57,56.17,1.84,21.22,31.23,33.15,23.02,44.85-17.48,31.96-6.2,84.01-.2,119.27,7.27,48.32-40.48,167.62,6.6,190.28,20.34,9.79,116.53,12.84,120.65-9.01,23.79-81.24-42.2-317.42,72.18-372.9,17.06-13.45,50.03-43.7,60.73-61.84C852.01,25.21,524.57-4.13,335.59,39.19c0,0-288.56-14.67-304.84,.22-13.87,12.69-8.49,113.52,11.09,113.97,97.47,2.68,251.3,18.57,336.54,12.95Z"/><path class="cls-1" d="M546.88,748.99c-3.9,2.38,.49,13.03,2.09,17.07,2.18,8.44,11.94,13.33,20.61,9.78,5.59-4.69,12.63-19.89,9.99-26.43"/></g><path class="cls-1" d="M493.77,489.16c-3.36,1.41-14.87,.59-14.15,3.92,1.46,6.83,5.7,31.63,6.63,38.14,.42,2.96,9.35-2.66,12.31-3.9"/></g><path class="cls-2" d="M714.19,274.81l49.58,24.81-49.58-24.81Z"/><path class="cls-2" d="M711.94,287.21l44.06,20.79-44.06-20.79Z"/><path class="cls-2" d="M711.94,301.69l34.06,16.31-34.06-16.31Z"/><path class="cls-2" d="M711.94,314.09l26.01,12.78-26.01-12.78Z"/><path class="cls-2" d="M711.94,326.5l17.22,8.94-17.22-8.94Z"/></g><line class="cls-2" x1="551.93" y1="446.41" x2="538.41" y2="702.77"/><line class="cls-2" x1="584.4" y1="446.56" x2="597.92" y2="702.92"/><path class="cls-2" d="M633.06,378.18c1.34,33.6-115.93,33.61-117.19,0"/></g></svg>