<?xml version="1.0" encoding="UTF-8"?><svg id="Base" xmlns="http://www.w3.org/2000/svg" viewBox="0 0 800 800"><defs><style>.cls-1{fill:none;stroke:#14171c;stroke-miterlimit:10;stroke-width:4px;}</style></defs><g id="Watertap"><path class="cls-1" d="M100.82,769.27c-23.4-70.92,9.99-157.34,71.24-199.45,21.57-14.99,56.85-24.42,77.34-40.71,14.32-17.33,13.25-43.28,12.21-64.22-1.12-2.44-6.79-4.69-8.14-7.01-1-25.49-30.16-10.63-8.14-40.71,5.67-7.28,16.53-12.83,24.42-16.28,5.8-9.63-8.64-34.51-4.07-44.78,28.18-12.38-26.11-63.49,21.26-61.06,11.66-15.95-7.56-7.25-13.12-10.18-5.5-7.05-5.09-22.1,6.11-24.42,4.83-1.61,21,5.05,20.35,0-2.55-19.77,7.9-158.11-18.32-144.51-8.72-9.83-10.93-11.01-13.93-9.81-27.43,14.12-63.68-3.63-63.41-41.07,3.39-12.4,13.57-27.27,22.38-36.63,13.53-7.6,39.76-11.79,48.85,4.07-1.56,11.16,6.67-2.49,10.18-4.07,29.54,1.62,68.84-8.65,91.59,14.25,7.91,1.49,22.63-11.7,30.53-10.18,78.7,15.22,16.16,133.62-30.53,85.48-33.91-34.96-12.06,122.54-10.17,140.43,.64,6.09,19.44-5.6,24.42-2.03,9.29,34.52,6.54,21.82-14.25,26.46-3.63,19.98,13.68,3.07,22.39,10.18,8.25,9.74,.65,38.59,4.07,50.88,18.24,33.24,5.29,26.1,9.5,51.9,16.73,11.43,24.48,.66,31.21,31.55-3.61,11.79-14.76,8.3-20.35,14.24-1.44,3.6,6.84,10.44,6.11,14.25-10.28,10.82-9.79,6.17-6.1,22.39,2.29,26.69,1.34,46.72,32.56,26.46,9.18-8.32,8.15-8.58,20.35-8.14,13.76-15.72,28.29-20.79,48.85-14.25,11.68,8.14,9.76,13.93,24.42,6.1,4.79-.28,11.51,9.66,16.28,10.18,26.14-5.55,23.88-19.15,52.92,0,12.53,2.67,38.18-7.78,50.88-6.11,44.4,2.92,42.23,91.7,24.43,117.14-10.06,11.88-48.08,.51-61.74,7.96-17.8,26.99-36.32,1.98-62.41,25.51-17.32,2-16.45-1.7-28.49,12.21-10.26,4.71-25.65,6.39-36.64,4.07-13.64-13.5-16.19-6.96-32.57-8.14-33.87-29.11-74.26,40.32-134.33,32.56-29.75,2.91-56.62-17.6-85.48-20.35-25.84-5.37-34.4,18.42-40.71,38.67-2.56,10.91,1.78,33.57,2.04,44.77,11.02,42.64-55.23,27.73-79.83,30.53-11.1,.45-27.68,3.84-34.15-8.14Z"/><path class="cls-1" d="M269.75,105.78c-8.16-31.13-7.16-33.96,0-54.95"/><path class="cls-1" d="M366.43,112.32c-8.16-31.13-7.16-33.96,0-54.95"/><path class="cls-1" d="M360.9,126.43c-25.37-2.74-26.1-4.35-37.74-17.65"/><path class="cls-1" d="M343.01,266.57c-22.01,1.03-13.36,2.64-20.94,1.37-6.11-1.02-23.62-6.11-23.62-6.11"/><path class="cls-1" d="M363.37,284.88c-28.4,.52-32.92,7.55-42.74,6.11-7.92-1.17-34.6-6.11-34.6-6.11"/><path class="cls-1" d="M385.75,305.24c-42.88,1.37-55.89,6.62-70.69,4.3-11.93-1.87-44.85-3.47-44.85-3.47"/><path class="cls-1" d="M385.47,351.79c-42.88,1.37-55.89,6.62-70.69,4.3-11.93-1.87-44.85-3.47-44.85-3.47"/><path class="cls-1" d="M288.06,415.14c-.09-17.46-2.81-23-1.28-28.88,1.23-4.74,2.63-18.01,2.63-18.01"/><path class="cls-1" d="M358.24,414.03c.2-17.11,3.23-22.63,1.58-28.34-1.33-4.61-2.8-17.56-2.8-17.56"/><path class="cls-1" d="M644.23,590.17c2.81-34.87-7.82-65.04-18.32-89.55"/><path class="cls-1" d="M603.53,604.42c1.3-38.62-8.88-79.5-21.37-106.76"/><path class="cls-1" d="M560.79,628.84c10.18-14.25,8.14-75.3-.4-100.98-1.43-4.3-15.88-37.42-15.88-37.42"/><path class="cls-1" d="M540.43,614.6c8.08-15.53,2.05-74.22-10.01-98.44-2.02-4.06-20.97-34.82-20.97-34.82"/><path class="cls-1" d="M474.86,649.61c8.08-15.53-2.5-75.7-14.56-99.93-2.02-4.06-20.97-34.82-20.97-34.82"/><path class="cls-1" d="M249.3,445.77c24.75,10.33,105.93,9.33,139.24,1.55"/><path class="cls-1" d="M260.13,464.11c24.75,10.33,105.93,9.33,139.24,1.55"/><path class="cls-1" d="M265.67,628.84c-79.58,4.97-72.02,37.64-77.34,101.76"/><path class="cls-1" d="M389.63,367.41c.19,15.17,10.37,23.31,4.27,43.66"/><path class="cls-1" d="M321.31,370.53c-.19,15.17-10.37,23.31-4.27,43.66"/></g></svg>