<?xml version="1.0" encoding="UTF-8"?><svg id="Base" xmlns="http://www.w3.org/2000/svg" viewBox="0 0 800 800"><defs><style>.cls-1{fill:none;stroke:#14171c;stroke-miterlimit:10;stroke-width:4px;}</style></defs><g id="Waterboiler"><path class="cls-1" d="M89.61,220.1c4.93,34.8,34.39,138.15,17.42,158.56-23.86,28.71-41.93,133.86-48.78,212.58-20.02,230.14,486.11,235.04,510.54,45.89,.89-6.9,16.18,4.79,22.65,4.64,16.65-.38,55.69,7.6,67.96,3.49,11-3.69-1.54-34.23-12.2-31.36-20.14,5.42-58.33-5.01-64.47,10.45-.8,2.02-7.33,1.68-8.71,0s1.98-6.5,1.74-8.71c-1.21-11.09-20.92-10.32-10.45-22.65,1.97-2.32,14.85-9.26,15.68-12.2,45.7-161.52-176.51-349.96-64.47-322.36,130.72-10.34,126.46,220.98,186.44,280.54,88.87-13.94,7.63-185.93-52.26-289.26-45.07-77.76-195.14-29.3-198.65-62.73-2.18-20.76-39.38-27.6-52.95-37.76-8.26-5.13-23.59-17.44-32.43-21.49-13.99-3-22.5-1.45-17.24-19.56,2.08-5.37,13.55-11.62,15.5-17.04,20.07-99.1-139.97-73.4-83.64,13.94,6.96,8.42,13.18,13.12,3.48,22.65-38.99,9.18-94,18.91-111.52,60.99,16.49,55.63-64.94,9.54-83.64,31.36Z"/><path class="cls-1" d="M58.24,610.41c10.78,66.73,501.61,70.39,516.39,1.79"/><path class="cls-1" d="M61.73,636.55c22.15,54.4,490.52,68.64,507.06,.58"/><path class="cls-1" d="M173.25,188.73c11.27-33.31,142.17-11.38,176.17-12.13,12.35,1.93,104.08-5.79,102.23,5.31"/><path class="cls-1" d="M244.69,453.59c-102.74,65.13-26.31,230.91,97.58,186.44,27.81-7.99,64.94-26.02,73.18-54.01,11.76-39.95,15.03-66.99-15.68-102.81-7.8-9.1-25.1-33.17-36.59-36.59-6.89-2.05-43.35-14.08-50.53-13.94-15.96,.32-56,9.1-67.96,20.91Z"/><path class="cls-1" d="M256.61,473.47c-79.94,50.68-20.47,179.66,75.93,145.06,21.64-6.22,50.53-20.24,56.94-42.03,9.15-31.08,11.69-52.12-12.2-79.99-6.07-7.08-19.53-25.81-28.47-28.47-5.36-1.59-33.73-10.96-39.32-10.85-12.42,.25-43.57,7.08-52.87,16.27Z"/><path class="cls-1" d="M357.44,527.96c4.99,1.13-112.96,1.38-85.26,25.71,21.7-.44,85.26-25.71,85.26-25.71Z"/><path class="cls-1" d="M107.03,378.66c10.04,21.97,32.39,30.53,41.82,36.59"/><path class="cls-1" d="M112.38,363.25c13.64,25.64,43.77,36.44,55.68,43.09"/><path class="cls-1" d="M99.21,394.17c6.22,13.08,21.15,19.22,26.99,22.83"/><path class="cls-1" d="M91.59,407.54c4.36,10.41,14.83,15.3,18.93,18.17"/><path class="cls-1" d="M307.11,456.42c.36,17.34,.01,23.99,.35,26.24"/><path class="cls-1" d="M216.82,543.02c17.33,.62,23.95,1.34,26.21,1.14"/><path class="cls-1" d="M369.77,541.61c17.33,.62,23.95,1.34,26.21,1.14"/><path class="cls-1" d="M238.89,487.69c14.24,9.89,19.42,14.08,21.43,15.14"/><path class="cls-1" d="M371.33,486.97c-14.02,10.21-19.67,13.73-21.33,15.28"/><path class="cls-1" d="M356.92,582.88c14.24,9.89,19.42,14.08,21.43,15.14"/><path class="cls-1" d="M265.09,586.36c-14.24,9.89-19.42,14.08-21.43,15.14"/><path class="cls-1" d="M67.09,654.67c30.94,26.24,75.21,24.7,93.96,27.19"/><path class="cls-1" d="M73.66,668.16c25.3,23.12,60.28,23.21,75.2,25.89"/><path class="cls-1" d="M89.03,688.76c17.18,15.65,40.97,15.68,51.11,17.48"/><path class="cls-1" d="M439.87,307.88c23.99-2.78,39.03-21.41,47.7-28.51"/><path class="cls-1" d="M432.08,298.04c26.26-4.17,43.97-26.3,53.06-34.38"/><path class="cls-1" d="M462.67,313.13c14.36-1.88,24.8-14.2,30.04-18.64"/><path class="cls-1" d="M478.18,321.16c10.17-1.6,17.71-10.92,21.47-14.3"/></g></svg>